<svg xmlns="http://www.w3.org/2000/svg" viewBox="0 0 7.68 10.43"><defs><style>.cls-1{fill:#2d988b;}</style></defs><title>advanced-search</title><g id="Layer_2" data-name="Layer 2"><g id="Layer_2-2" data-name="Layer 2"><path class="cls-1" d="M7.68,9.69v.52a.21.21,0,0,1-.21.21H.38a.21.21,0,0,1-.21-.21V9.69a.21.21,0,0,1,.21-.21H3.09A3.06,3.06,0,0,1,1.5,8.24H.15A.15.15,0,0,1,0,8.1V7.69a.15.15,0,0,1,.15-.15H3.54a.15.15,0,0,1,.15.15V8.1a.14.14,0,0,1-.15.15H3.12a1.92,1.92,0,0,0,.94.25A1.89,1.89,0,0,0,5.95,6.59a1.85,1.85,0,0,0-.34-1.08,1.23,1.23,0,0,1-.33,0,1.35,1.35,0,0,1-1.17-.67L3.41,6l.16.1-.41.68-.43-.26-.07.12.09.06-.12.2-1.14-.7L1.6,6l.12.07L1.79,6l-.43-.26L1.78,5l.13.08,2.15-3.5a.83.83,0,0,1,.85-.38L5.33.54,5.16.44,5.43,0l1,.59L6.13,1,5.94.92l-.43.68a.83.83,0,0,1,0,.93l-.2.34A1.34,1.34,0,0,1,6.63,4.21a1.29,1.29,0,0,1-.13.57A3,3,0,0,1,7.1,6.59,3,3,0,0,1,5,9.48H7.46A.21.21,0,0,1,7.68,9.69Z"/></g></g></svg>