<svg xmlns="http://www.w3.org/2000/svg" viewBox="0 0 10.41 10.45"><defs><style>.cls-1{fill:#2d988b;}</style></defs><title>basic-search</title><g id="Layer_2" data-name="Layer 2"><g id="Layer_2-2" data-name="Layer 2"><path class="cls-1" d="M10.24,9.33,7.55,6.64c-.08-.08-.4-.42-.78-.23l-.34-.34A3.67,3.67,0,1,0,0,4.08a3.67,3.67,0,0,0,6,2.37l.32.32h0A.6.6,0,0,0,6.33,7h0a.65.65,0,0,0,.2.47l2.73,2.74a.66.66,0,0,0,.48.2.67.67,0,0,0,.5-1.12ZM3.67,6.8A3.13,3.13,0,1,1,6.8,3.67,3.13,3.13,0,0,1,3.67,6.8Z"/></g></g></svg>