<svg xmlns="http://www.w3.org/2000/svg" viewBox="0 0 15.13 15.13"><defs><style>.cls-1{fill:#686868;}</style></defs><title>instagram</title><g id="Layer_2" data-name="Layer 2"><g id="Layer_106" data-name="Layer 106"><path class="cls-1" d="M11.29,5.76a1.93,1.93,0,1,1,1.93-1.93A1.93,1.93,0,0,1,11.29,5.76Zm0-2.85a.93.93,0,1,0,.93.93A.93.93,0,0,0,11.29,2.9Z"/><path class="cls-1" d="M13.26,15.13H1.87A1.88,1.88,0,0,1,0,13.26V1.87A1.88,1.88,0,0,1,1.87,0H13.26a1.88,1.88,0,0,1,1.87,1.87V13.26A1.88,1.88,0,0,1,13.26,15.13ZM1.87,1A.88.88,0,0,0,1,1.87V13.26a.88.88,0,0,0,.87.87H13.26a.88.88,0,0,0,.87-.87V1.87A.88.88,0,0,0,13.26,1Z"/></g></g></svg>