<svg xmlns="http://www.w3.org/2000/svg" viewBox="0 0 22.16 18"><defs><style>.cls-1{fill:#686868;}</style></defs><title>twitter</title><g id="Layer_2" data-name="Layer 2"><g id="twitter"><path class="cls-1" d="M22.16,2.13a9.08,9.08,0,0,1-2.61.72,4.56,4.56,0,0,0,2-2.51,9.16,9.16,0,0,1-2.89,1.1,4.55,4.55,0,0,0-7.75,4.14A12.91,12.91,0,0,1,1.54.83,4.55,4.55,0,0,0,3,6.9,4.55,4.55,0,0,1,.89,6.33v.06a4.55,4.55,0,0,0,3.65,4.46,4.6,4.6,0,0,1-1.2.16,4.36,4.36,0,0,1-.86-.08,4.55,4.55,0,0,0,4.25,3.16A9.12,9.12,0,0,1,1.08,16,9.66,9.66,0,0,1,0,16a12.85,12.85,0,0,0,7,2A12.84,12.84,0,0,0,19.9,5.07l0-.59A9.08,9.08,0,0,0,22.16,2.13Z"/></g></g></svg>